#!OML:ASF X:\für Bonn\!DataBase\2005_08_10_Bjorn_Final\c3d\bjorn.ASF
:FULLY-SPECIFIED
:DEGREES
31
root -22.2826 18.9219 -28.8176 -354.768 363.501 -361.695
lowerback -6.39661 1.20279 -2.22231
upperback 8.84006 2.24365 -2.71211
thorax 13.267 1.02867 -1.33174
lowerneck -1.48925 1.20329 0.239554
upperneck 10.3068 1.72993 -1.27841
head 3.60392 0.815878 -0.398749
rclavicle 1.55052e-014 -1.27222e-014
rhumerus -27.217 -12.7955 -93.6957
rradius 26.1694
rwrist 6.66285
rhand -11.2303 13.4695
rfingers 7.12502
rthumb 14.7986 -15.9821
lclavicle 1.55052e-014 -1.27222e-014
lhumerus -27.4149 -15.018 90.1305
lradius 37.0305
lwrist -18.3592
lhand -20.8538 -12.1611
lfingers 7.12502
lthumb 5.51548 17.7472
rfemur -11.955 -4.27867 19.1299
rtibia 38.772
rfoot -22.0617 14.7442
rtoes -8.78635
lfemur -9.9707 7.98056 -19.9147
ltibia 33.9098
lfoot -23.3261 -8.98706
ltoes -3.37529
32
root -22.2719 18.9168 -28.7638 -354.746 363.352 -361.693
lowerback -6.2903 1.16502 -2.29987
upperback 8.88168 2.20398 -2.75595
thorax 13.2486 1.00524 -1.34564
lowerneck -1.4945 1.23466 0.176366
upperneck 10.198 1.76867 -1.23209
head 3.56583 0.834676 -0.371235
rclavicle 7.15625e-015 -3.81667e-014
rhumerus -27.5219 -12.6845 -93.7255
rradius 26.1546
rwrist 6.38399
rhand -11.2809 13.5545
rfingers 7.12502
rthumb 14.7499 -15.9007
lclavicle 7.15625e-015 -3.81667e-014
lhumerus -27.0576 -14.8883 90.0279
lradius 37.3898
lwrist -18.2549
lhand -21.2623 -12.6037
lfingers 7.12502
lthumb 5.12112 17.3144
rfemur -12.4619 -4.2152 19.0745
rtibia 39.8946
rfoot -22.0283 14.7404
rtoes -9.01242
lfemur -9.69781 8.04409 -19.9316
ltibia 33.7483
lfoot -23.565 -8.88864
ltoes -3.84998
33
root -22.2611 18.9106 -28.7094 -354.727 363.2 -361.71
lowerback -6.20064 1.13079 -2.33931
upperback 8.94388 2.16758 -2.81398
thorax 13.2671 0.987825 -1.39579
lowerneck -1.51728 1.25644 0.137523
upperneck 10.0583 1.79247 -1.1793
head 3.52041 0.847341 -0.346384
rclavicle -1.66979e-014 1.11319e-014
rhumerus -27.7743 -12.6126 -93.7798
rradius 26.1226
rwrist 6.1442
rhand -11.3276 13.6238
rfingers 7.12502
rthumb 14.7049 -15.8347
lclavicle -1.66979e-014 1.11319e-014
lhumerus -26.6479 -14.8171 89.8995
lradius 37.7683
lwrist -18.0541
lhand -21.6923 -13.0775
lfingers 7.12502
lthumb 4.70584 16.8503
rfemur -13.022 -4.20472 19.0275
rtibia 41.1004
rfoot -21.9735 14.8101
rtoes -9.16564
lfemur -9.41302 8.17656 -19.9259
ltibia 33.5671
lfoot -23.8106 -8.82661
ltoes -4.33613
34
root -22.2506 18.9062 -28.6549 -354.695 363.052 -361.726
lowerback -6.10107 1.095 -2.39401
upperback 9.00545 2.12807 -2.85226
thorax 13.277 0.966158 -1.41634
lowerneck -1.57312 1.29083 0.0756424
upperneck 9.93875 1.83625 -1.14266
head 3.48854 0.868221 -0.321938
rclavicle 1.07344e-014 -2.54444e-014
rhumerus -28.0273 -12.5227 -93.8124
rradius 26.0964
rwrist 5.93617
rhand -11.4397 13.6842
rfingers 7.12502
rthumb 14.5969 -15.7821
lclavicle 1.07344e-014 -2.54444e-014
lhumerus -26.2394 -14.7674 89.8239
lradius 38.24
lwrist -17.7329
lhand -22.0999 -13.5143
lfingers 7.12502
lthumb 4.31225 16.4218
rfemur -13.6424 -4.15551 18.988
rtibia 42.3702
rfoot -21.9547 14.7894
rtoes -9.67327
lfemur -9.12374 8.24956 -19.9283
ltibia 33.3609
lfoot -24.0259 -8.69336
ltoes -4.96854
35
root -22.239 18.901 -28.5998 -354.679 362.927 -361.738
lowerback -5.98352 1.06043 -2.41393
upperback 9.08463 2.08892 -2.9168
thorax 13.2991 0.949889 -1.48556
lowerneck -1.67396 1.30368 0.0528727
upperneck 9.81611 1.84782 -1.08745
head 3.4642 0.875223 -0.29912
rclavicle 1.07344e-014 2.70347e-014
rhumerus -28.2769 -12.3978 -93.9029
rradius 26.1309
rwrist 5.63515
rhand -11.5272 13.6923
rfingers 7.12502
rthumb 14.5126 -15.7801
lclavicle 1.07344e-014 2.70347e-014
lhumerus -25.8028 -14.8641 89.7325
lradius 38.7807
lwrist -17.1542
lhand -22.4923 -13.8839
lfingers 7.12502
lthumb 3.9334 16.0595
rfemur -14.2869 -4.19504 18.9363
rtibia 43.6796
rfoot -21.8949 14.8205
rtoes -10.0523
lfemur -8.80807 8.32163 -19.9246
ltibia 33.1414
lfoot -24.2464 -8.63087
ltoes -5.38043
36
root -22.2282 18.8966 -28.5432 -354.632 362.777 -361.729
lowerback -5.88902 1.02188 -2.48426
upperback 9.14718 2.04841 -2.96152
thorax 13.3133 0.92655 -1.50449
lowerneck -1.68447 1.33835 -0.0704884
upperneck 9.5903 1.88791 -0.985331
head 3.38518 0.89531 -0.243439
rclavicle -1.31198e-014 -4.77083e-015
rhumerus -28.5529 -12.3019 -93.9409
rradius 26.1793
rwrist 5.42689
rhand -11.5894 13.6869
rfingers 7.12502
rthumb 14.4527 -15.7898
lclavicle -1.31198e-014 -4.77083e-015
lhumerus -25.397 -14.8864 89.6919
lradius 39.4035
lwrist -16.519
lhand -22.8123 -14.1962
lfingers 7.12502
lthumb 3.62436 15.7527
rfemur -15.0045 -4.16523 18.865
rtibia 45.0101
rfoot -21.7418 14.8604
rtoes -10.1283
lfemur -8.51038 8.37851 -19.9604
ltibia 32.9022
lfoot -24.4416 -8.50467
ltoes -5.76886
37
root -22.2158 18.8928 -28.4856 -354.584 362.622 -361.724
lowerback -5.78914 0.970749 -2.55619
upperback 9.21533 1.98876 -2.98862
thorax 13.3297 0.892702 -1.50651
lowerneck -1.70422 1.38347 -0.246666
upperneck 9.36426 1.9431 -0.863229
head 3.30728 0.921821 -0.171836
rclavicle 1.47101e-014 1.59028e-014
rhumerus -28.8289 -12.0673 -93.9778
rradius 26.2609
rwrist 5.1521
rhand -11.6549 13.589
rfingers 7.12502
rthumb 14.3896 -15.8922
lclavicle 1.47101e-014 1.59028e-014
lhumerus -24.9764 -14.853 89.6729
lradius 40.0686
lwrist -15.824
lhand -23.0951 -14.4485
lfingers 7.12502
lthumb 3.3513 15.5049
rfemur -15.7812 -4.20269 18.7864
rtibia 46.331
rfoot -21.4922 14.9867
rtoes -10.1161
lfemur -8.21669 8.48495 -19.9933
ltibia 32.6626
lfoot -24.6182 -8.43443
ltoes -6.10888
38
root -22.2039 18.8879 -28.4285 -354.533 362.488 -361.697
lowerback -5.66991 0.916346 -2.62133
upperback 9.27535 1.9263 -3.04948
thorax 13.3262 0.86061 -1.54994
lowerneck -1.67477 1.43034 -0.378699
upperneck 9.07588 1.99606 -0.720811
head 3.19903 0.950079 -0.102381
rclavicle 2.50469e-014 2.70347e-014
rhumerus -29.1066 -11.955 -94.0266
rradius 26.339
rwrist 4.91653
rhand -11.6683 13.5104
rfingers 7.12502
rthumb 14.3766 -15.9717
lclavicle 2.50469e-014 2.70347e-014
lhumerus -24.639 -14.9243 89.6285
lradius 40.8995
lwrist -15.0405
lhand -23.3338 -14.5874
lfingers 7.12502
lthumb 3.12073 15.3695
rfemur -16.5923 -4.23412 18.6891
rtibia 47.6253
rfoot -21.1883 15.0986
rtoes -9.76135
lfemur -7.93052 8.51418 -20.0563
ltibia 32.4277
lfoot -24.8098 -8.28493
ltoes -6.51836
39
root -22.1912 18.8807 -28.3701 -354.49 362.33 -361.651
lowerback -5.55947 0.863937 -2.70277
upperback 9.35367 1.86878 -3.10271
thorax 13.3493 0.82852 -1.57516
lowerneck -1.64715 1.48292 -0.577901
upperneck 8.74471 2.05649 -0.537899
head 3.07568 0.981531 -0.00877698
rclavicle 1.07344e-014 -2.70347e-014
rhumerus -29.345 -11.7674 -94.0762
rradius 26.3864
rwrist 4.68388
rhand -11.7879 13.4582
rfingers 7.12502
rthumb 14.2614 -16.0321
lclavicle 1.07344e-014 -2.70347e-014
lhumerus -24.3483 -14.9193 89.6116
lradius 41.8433
lwrist -14.3157
lhand -23.7362 -14.9153
lfingers 7.12502
lthumb 2.73217 15.0469
rfemur -17.4215 -4.27747 18.5619
rtibia 48.8807
rfoot -20.8218 15.2467
rtoes -9.2092
lfemur -7.64917 8.59494 -20.141
ltibia 32.2164
lfoot -24.9781 -8.20754
ltoes -6.84861
40
root -22.1792 18.8714 -28.3109 -354.444 362.18 -361.565
lowerback -5.43745 0.807606 -2.83819
upperback 9.4251 1.81195 -3.16186
thorax 13.3559 0.791773 -1.5765
lowerneck -1.5743 1.55098 -0.701438
upperneck 8.3747 2.13857 -0.413266
head 2.93282 1.02452 0.0523626
rclavicle -3.18055e-015 -4.92986e-014
rhumerus -29.6068 -11.6192 -94.1099
rradius 26.4612
rwrist 4.45118
rhand -11.9039 13.4078
rfingers 7.12502
rthumb 14.1496 -16.0904
lclavicle -3.18055e-015 -4.92986e-014
lhumerus -24.0898 -14.9477 89.6042
lradius 42.8799
lwrist -13.5521
lhand -24.2723 -15.4419
lfingers 7.12502
lthumb 2.21441 14.5264
rfemur -18.2737 -4.35742 18.3963
rtibia 50.0992
rfoot -20.4743 15.4002
rtoes -8.57853
lfemur -7.37658 8.58726 -20.282
ltibia 32.0302
lfoot -25.1737 -8.05401
ltoes -7.08939
41
root -22.1673 18.8602 -28.2517 -354.409 362.041 -361.497
lowerback -5.28107 0.745959 -2.9411
upperback 9.49536 1.74138 -3.21791
thorax 13.3403 0.751664 -1.59495
lowerneck -1.54298 1.62273 -0.764322
upperneck 8.03612 2.22823 -0.343413
head 2.81047 1.0711 0.0857692
rclavicle 7.95139e-015 1.43125e-014
rhumerus -29.8914 -11.3946 -94.158
rradius 26.5625
rwrist 4.21662
rhand -12.0556 13.3905
rfingers 7.12502
rthumb 14.0034 -16.1178
lclavicle 7.95139e-015 1.43125e-014
lhumerus -23.8019 -15.008 89.5974
lradius 43.9864
lwrist -12.8973
lhand -24.7943 -15.7584
lfingers 7.12502
lthumb 1.71019 14.2145
rfemur -19.1154 -4.43223 18.2466
rtibia 51.2857
rfoot -20.1969 15.5308
rtoes -8.03474
lfemur -7.1142 8.68579 -20.3906
ltibia 31.8705
lfoot -25.3798 -7.90105
ltoes -7.65541
42
root -22.1544 18.8479 -28.1912 -354.364 361.901 -361.416
lowerback -5.11534 0.685123 -3.04884
upperback 9.55249 1.67172 -3.28157
thorax 13.3036 0.712102 -1.61846
lowerneck -1.52829 1.68604 -0.762632
upperneck 7.72002 2.30888 -0.33295
head 2.7009 1.11311 0.0888899
rclavicle -1.82882e-014 -1.11319e-014
rhumerus -30.1765 -11.1896 -94.2121
rradius 26.617
rwrist 3.92322
rhand -12.263 13.4692
rfingers 7.12502
rthumb 13.8036 -16.0528
lclavicle -1.82882e-014 -1.11319e-014
lhumerus -23.5386 -15.0743 89.5949
lradius 45.1953
lwrist -12.2055
lhand -25.3154 -15.9437
lfingers 7.12502
lthumb 1.20696 14.0327
rfemur -19.9817 -4.55163 18.0783
rtibia 52.4475
rfoot -19.9948 15.6411
rtoes -7.75222
lfemur -6.8632 8.69499 -20.5309
ltibia 31.7308
lfoot -25.6071 -7.7046
ltoes -8.17374
43
root -22.1422 18.8342 -28.1295 -354.336 361.759 -361.309
lowerback -4.92245 0.630856 -3.16656
upperback 9.61019 1.61301 -3.37015
thorax 13.2517 0.678527 -1.66186
lowerneck -1.48938 1.73938 -0.733686
upperneck 7.37654 2.37138 -0.272592
head 2.57797 1.14856 0.102096
rclavicle 2.14687e-014 -5.08889e-014
rhumerus -30.4892 -11.024 -94.2839
rradius 26.7035
rwrist 3.69762
rhand -12.473 13.5952
rfingers 7.12502
rthumb 13.6011 -15.9405
lclavicle 2.14687e-014 -5.08889e-014
lhumerus -23.2874 -15.1732 89.5636
lradius 46.4872
lwrist -11.6217
lhand -25.7584 -15.9915
lfingers 7.12502
lthumb 0.779055 13.9868
rfemur -20.8387 -4.64669 17.884
rtibia 53.5817
rfoot -19.8113 15.6814
rtoes -7.84057
lfemur -6.59498 8.78137 -20.6851
ltibia 31.6043
lfoot -25.8246 -7.56035
ltoes -8.61708
44
root -22.1299 18.8178 -28.0669 -354.328 361.626 -361.182
lowerback -4.69128 0.580227 -3.3027
upperback 9.67455 1.55824 -3.4541
thorax 13.1833 0.644754 -1.68916
lowerneck -1.48589 1.7778 -0.728351
upperneck 7.04759 2.4146 -0.19236
head 2.46649 1.17411 0.125377
rclavicle 3.18055e-015 1.59028e-014
rhumerus -30.8093 -10.8165 -94.3554
rradius 26.7969
rwrist 3.42949
rhand -12.6895 13.7313
rfingers 7.12502
rthumb 13.3924 -15.8183
lclavicle 3.18055e-015 1.59028e-014
lhumerus -23.0156 -15.3054 89.5606
lradius 47.8415
lwrist -11.016
lhand -26.1691 -15.9274
lfingers 7.12502
lthumb 0.382409 14.052
rfemur -21.6834 -4.78983 17.6628
rtibia 54.6896
rfoot -19.7425 15.6985
rtoes -8.40641
lfemur -6.30632 8.87616 -20.8602
ltibia 31.4886
lfoot -26.0642 -7.38144
ltoes -9.33857
